#N canvas 0 49 718 849 10;
#X obj 62 19 inlet;
#X obj 62 103 outlet;
#X obj 120 18 inlet;
#X obj 74 76 +;
#X text 116 0 inports Summand1 Summand2;
#X text 0 0 outports Result;
#X obj 138 47 trigger bang;
#X connect 0 0 3 0;
#X connect 0 0 6 0;
#X connect 2 0 3 1;
#X connect 2 0 6 0;
#X connect 3 0 1 0;
#X connect 6 0 3 0;
