#N canvas 442 437 450 300 10;
#X text 0 0 inports SoundIn Multiplier;
#X text 0 0 outports SoundOut;
#X obj 62 19 inlet~;
#X obj 120 18 inlet~;
#X obj 79 96 *~;
#X obj 71 128 outlet~;
#X connect 2 0 4 0;
#X connect 3 0 4 1;
#X connect 4 0 5 0;
