#N canvas 0 49 718 849 10;
#X obj 120 18 inlet;
#X text 0 0 inports Multiplicand Multiplier;
#X text 0 0 outports Product;
#X obj 126 48 trigger bang;
#X obj 77 70 *~;
#X obj 62 19 inlet~;
#X obj 63 127 outlet~;
#X connect 0 0 3 0;
#X connect 0 0 4 1;
#X connect 3 0 4 0;
#X connect 4 0 6 0;
#X connect 5 0 3 0;
#X connect 5 0 4 0;
