#N canvas 1 83 1151 976 10;
#X obj 128 407 pwm_patch;
#X obj 173 593 dac~;
#X floatatom 232 58 5 0 0 0 - - -;
#X floatatom 346 65 5 0 0 0 - - -;
#X obj 220 144 *~ 2;
#X obj 232 169 -~ 1;
#X obj 225 116 phasor~ 40;
#X obj 306 111 osc~;
#X connect 0 0 1 0;
#X connect 2 0 6 0;
#X connect 3 0 7 0;
#X connect 4 0 5 0;
#X connect 5 0 0 0;
#X connect 6 0 4 0;
#X connect 7 0 0 1;
#X connect 7 0 1 1;
