#N canvas 720 49 718 261 10;
#X floatatom 135 203 5 0 0 0 - - -;
#X msg 141 66 1;
#X msg 201 70 0;
#X msg 236 74 1;
#X msg 70 67 0;
#X obj 145 129 or_patch;
#X connect 1 0 5 0;
#X connect 2 0 5 1;
#X connect 3 0 5 1;
#X connect 4 0 5 0;
#X connect 5 0 0 0;
