#N canvas 1380 322 718 704 10;
#X text 53 5 inports SoundIn CutoffFrequency;
#X text 48 24 outports SoundOut;
#X obj 63 61 inlet~;
#X obj 139 61 inlet;
#X obj 83 147 lop~;
#X obj 86 264 outlet~;
#X connect 2 0 4 0;
#X connect 3 0 4 1;
#X connect 4 0 5 0;
