#N canvas 621 551 450 300 10; 
#X obj 0 0 component_6_SawToothGenerator1;
#X obj 1 0 component_7_PulseWidthModulation1;
#X obj 2 0 component_8_PulseWidthModulation2;
#X obj 3 0 component_9_Mixer1;
#X obj 4 0 component_10_Constant2;
#X obj 5 0 component_11_ADSR1;
#X obj 6 0 component_12_Constant4;
#X obj 7 0 component_13_Constant5;
#X obj 8 0 component_14_Lowpass1;
#X obj 9 0 component_15_Mixer1;
#X obj 10 0 component_16_Highpass2;
#X obj 11 0 component_17_ControlAddition1;
#X obj 12 0 component_18_ControlSubtraction1;
#X obj 13 0 component_19_SineGenerator1;
#X obj 14 0 component_20_ControlMultiplication1;
#X obj 15 0 component_21_TriangleGenerator2;
#X obj 16 0 component_22_SquareGenerator1;
#X connect 0 0 1 0;
#X connect 1 0 3 0;
#X connect 2 0 3 2;
#X connect 4 0 3 1;
#X connect 6 0 5 3;
#X connect 8 0 5 0;
#X connect 3 0 9 0;
#X connect 9 0 10 0;
#X connect 10 0 8 0;
#X connect 11 0 8 1;
#X connect 12 0 10 1;
#X connect 13 0 2 1;
#X connect 13 0 1 1;
#X connect 7 0 14 1;
#X connect 14 0 5 4;
#X connect 15 0 2 0;
#X connect 16 0 9 2;

#X obj 0 0 inlet;
#X connect 17 0 0 0;
#X obj 1 0 outlet~;
#X connect 5 0 18 0 ;
#X obj 1 0 inlet;
#X connect 19 0 5 5;
#X obj 2 0 inlet;
#X connect 20 0 9 1;
#X connect 17 0 11 0;
#X obj 3 0 inlet;
#X connect 21 0 11 1;
#X connect 21 0 12 1;
#X connect 17 0 12 0;
#X obj 4 0 inlet;
#X connect 22 0 14 0;
#X connect 22 0 5 1;
#X connect 22 0 5 2;
#X connect 17 0 15 0;
#X connect 17 0 16 0;
#X connect 17 0 13 0;
