#N canvas 621 551 450 300 10; 
#X obj 411 64 component_0__frequency;
#X obj 537 62 component_1__trigger;
#X obj 642 476 component_2_SoundOutput1;
#X obj 838 63 component_3__richness;
#X obj 702 63 component_4__distortion;
#X obj 947 64 component_5__softness;
#X obj 517 317 component_23_Funky;
#X connect 0 0 6 0;
#X connect 1 0 6 1;
#X connect 3 0 6 3;
#X connect 5 0 6 4;
#X connect 4 0 6 2;
#X connect 6 0 2 0;
#X obj 30 20 loadbang;
#X obj 30 30 delay 100;
#X msg 30 40 ;pd dsp 1;
#X connect 7 0 8 0;
#X connect 8 0 9 0;
#X obj 72 31 dumpOSC 50050;
#X obj 138 101 OSCroute /frequency /trigger /richness /distortion /softness ;
#X connect 10 0 11 0;
#X obj 192 154 unpack f;
#X obj 99 218 s /frequency;
#X connect 11 0 12 0;
#X connect 12 0 13 0;
#X obj 192 154 unpack f;
#X obj 99 218 s /trigger;
#X connect 11 1 14 0;
#X connect 14 0 15 0;
#X obj 192 154 unpack f;
#X obj 99 218 s /richness;
#X connect 11 2 16 0;
#X connect 16 0 17 0;
#X obj 192 154 unpack f;
#X obj 99 218 s /distortion;
#X connect 11 3 18 0;
#X connect 18 0 19 0;
#X obj 192 154 unpack f;
#X obj 99 218 s /softness;
#X connect 11 4 20 0;
#X connect 20 0 21 0;
