#N canvas 959 83 958 1064 12;
#X text 28 16 outports TriggerOut;
#X obj 48 79 inlet trigger;
#X obj 198 79 inlet mode;
#X obj 302 78 inlet delay;
#X obj 225 382 outlet trigger;
#X obj 67 123 trigger bang;
#X obj 225 234 delay;
#X obj 252 121 t b;
#X obj 187 169 spigot;
#X msg 247 320 1;
#X obj 310 135 sel 0;
#X text 79 34 inports TriggerIn Loop Delay;
#X connect 1 0 5 0;
#X connect 2 0 8 1;
#X connect 3 0 10 0;
#X connect 5 0 6 0;
#X connect 6 0 7 0;
#X connect 6 0 9 0;
#X connect 7 0 8 0;
#X connect 8 0 6 0;
#X connect 9 0 4 0;
#X connect 10 1 6 1;
