#N canvas 720 49 718 261 10;
#X obj 175 159 timer_patch;
#X msg 104 161 1;
#X msg 241 104 1000;
#X obj 65 197 bng 15 250 50 0 empty empty empty 17 7 0 10 -262144 -1
-1;
#X obj 195 216 bng 15 250 50 0 empty empty empty 17 7 0 10 -262144
-1 -1;
#X connect 0 0 4 0;
#X connect 0 0 1 0;
#X connect 1 0 0 0;
#X connect 1 0 3 0;
#X connect 2 0 0 1;
