#N canvas 1440 49 958 1149 10;
#X obj 83 116 timer_patch;
#X floatatom 169 51 5 0 0 0 - - -;
#X msg 75 64 1;
#X obj 87 181 t b;
#X obj 82 223 bng 15 250 50 0 empty empty empty 17 7 0 10 -262144 -1
-1;
#X connect 0 0 3 0;
#X connect 1 0 0 1;
#X connect 2 0 0 0;
#X connect 3 0 4 0;
