#N canvas 0 49 718 849 10;
#X text 116 0 inports Summand1 Summand2;
#X text 0 0 outports Result;
#X obj 62 19 inlet~;
#X obj 120 18 inlet~;
#X obj 74 76 +~;
#X obj 62 103 outlet~;
#X connect 2 0 4 0;
#X connect 3 0 4 1;
#X connect 4 0 5 0;
