#N canvas 1440 49 958 1149 10;
#X text 0 0 outports Value;
#X obj 134 47 inlet data;
#X obj 307 39 inlet speed;
#X text 105 4 inports Data Speed;
#X obj 184 303 outlet value;
#X obj 197 229 float;
#X obj 142 144 +;
#X obj 274 143 - 1;
#X obj 288 88 metro 1000;
#X obj 247 40 loadbang;
#X connect 1 0 6 0;
#X connect 2 0 8 0;
#X connect 5 0 6 1;
#X connect 5 0 4 0;
#X connect 5 0 7 1;
#X connect 6 0 5 0;
#X connect 7 0 5 0;
#X connect 8 0 7 0;
#X connect 9 0 8 0;
