#N canvas 215 590 450 300 10;
#X obj 34 15 inlet~;
#X obj 178 17 inlet~;
#X obj 79 183 outlet~;
#X obj 81 138 +~;
#X obj 111 16 inlet;
#X obj 92 103 *~;
#X obj 132 119 *~;
#X obj 185 88 * -1;
#X obj 193 112 + 1;
#X text 157 -1 inports Waveform1 Bias Waveform2;
#X text 13 -2 outports Output;
#X floatatom 119 61 5 0 0 0 - - -;
#X obj 237 39 loadbang;
#X connect 0 0 5 0;
#X connect 1 0 6 0;
#X connect 3 0 2 0;
#X connect 4 0 7 0;
#X connect 4 0 11 0;
#X connect 5 0 3 0;
#X connect 6 0 3 1;
#X connect 7 0 8 0;
#X connect 8 0 6 1;
#X connect 11 0 5 1;
#X connect 11 0 7 0;
#X connect 12 0 11 0;
