#N canvas 1378 337 718 704 10;
#X text 53 5 inports SoundIn CutoffFrequency;
#X text 48 24 outports SoundOut;
#X obj 63 61 inlet~;
#X obj 139 61 inlet;
#X obj 86 264 outlet~;
#X obj 83 147 hip~;
#X connect 2 0 5 0;
#X connect 3 0 5 1;
#X connect 5 0 4 0;
