#N canvas 0 49 718 745 10;
#X obj 159 196 outlet;
#X obj 288 27 inlet selector;
#X obj 152 139 spigot;
#X obj 228 137 spigot;
#X obj 286 62 sel 0;
#X msg 277 97 1;
#X msg 244 99 0;
#X msg 311 99 0;
#X msg 348 98 1;
#X obj 212 199 outlet;
#X obj 109 28 inlet data;
#X text 0 0 outports Data1 Data2;
#X text 147 4 inports Data Selector;
#X obj 202 32 loadbang;
#X connect 1 0 4 0;
#X connect 2 0 0 0;
#X connect 3 0 9 0;
#X connect 4 0 5 0;
#X connect 4 0 6 0;
#X connect 4 1 7 0;
#X connect 4 1 8 0;
#X connect 5 0 2 1;
#X connect 6 0 3 1;
#X connect 7 0 2 1;
#X connect 8 0 3 1;
#X connect 10 0 2 0;
#X connect 10 0 3 0;
#X connect 13 0 6 0;
#X connect 13 0 5 0;
