#N canvas 720 49 718 408 10;
#X floatatom 135 203 5 0 0 0 - - -;
#X msg 141 66 1;
#X msg 201 70 0;
#X msg 236 74 1;
#X obj 145 129 and_patch;
#X msg 70 67 0;
#X connect 1 0 4 0;
#X connect 2 0 4 1;
#X connect 3 0 4 1;
#X connect 4 0 0 0;
#X connect 5 0 4 0;
