#N canvas 0 49 718 849 10;
#X obj 197 270 outlet;
#X text 131 0 inports Value1 Value2;
#X text 0 0 outports Result;
#X obj 126 52 inlet;
#X obj 425 38 inlet;
#X obj 196 225 expr if ($f1 > 0 && $f2 > 0 \, 1 \, 0);
#X obj 325 86 t b;
#X obj 230 136 float;
#X connect 3 0 5 0;
#X connect 3 0 7 0;
#X connect 4 0 5 1;
#X connect 4 0 6 0;
#X connect 5 0 0 0;
#X connect 6 0 7 0;
#X connect 7 0 5 0;
