#N canvas 2 50 1276 1388 10;
#X obj 96 80 inlet;
#X obj 114 196 outlet~;
#X obj 272 99 inlet~;
#X obj 113 151 delread~ \$0_delayline;
#X obj 256 150 delwrite~ \$0_delayline 10000;
#X text 88 250 outports SoundOut;
#X text 89 280 inports Delay SoundIn;
#X connect 0 0 3 0;
#X connect 2 0 4 0;
#X connect 3 0 1 0;
