#N canvas 0 0 450 300 10;
#X obj 62 19 inlet;
#X obj 69 85 outlet;
#X obj 120 18 inlet;
#X obj 77 53 *;
#X connect 0 0 3 0;
#X connect 2 0 3 1;
#X connect 3 0 1 0;
#X text 0 0 inports Multiplicand Multiplier;
#X text 0 0 outports Product;