#N canvas 798 445 450 300 10;
#X obj 34 -98 inlet;
#X obj 64 124 outlet~;
#X obj 82 50 osc~;
#X obj 81 -12 t f b;
#X obj 188 82 dbtorms;
#X obj 82 19 mtof;
#X obj 66 -66 routeOSC /on /off;
#X obj 148 154 print;
#X obj 107 87 *~;
#X msg 161 30 0;
#X msg 220 -3 80;
#X connect 0 0 6 0;
#X connect 2 0 8 0;
#X connect 3 0 5 0;
#X connect 3 1 10 0;
#X connect 4 0 8 1;
#X connect 5 0 2 0;
#X connect 6 0 3 0;
#X connect 6 1 9 0;
#X connect 8 0 1 0;
#X connect 9 0 4 0;
#X connect 10 0 4 0;
