#N canvas 0 49 718 849 10;
#X obj 27 8 inlet;
#X obj 109 341 outlet;
#X obj 279 215 metro;
#X obj 148 12 inlet;
#X obj 272 170 * 1000;
#X obj 268 135 /;
#X obj 114 65 trigger bang;
#X obj 81 226 osc~;
#X obj 75 282 snapshot~;
#X floatatom 166 307 5 0 0 0 - - -;
#X floatatom 54 108 5 0 0 0 - - -;
#X floatatom 336 195 5 0 0 0 - - -;
#X obj 293 270 tgl 15 0 empty empty empty 17 7 0 10 -262144 -1 -1 0
1;
#X msg 305 95 float 1;
#X text 107 -1 inports Resolution Frequency;
#X text 0 0 outports Output;
#X connect 0 0 6 0;
#X connect 0 0 10 0;
#X connect 2 0 8 0;
#X connect 2 0 12 0;
#X connect 3 0 5 1;
#X connect 3 0 6 0;
#X connect 4 0 2 1;
#X connect 4 0 11 0;
#X connect 5 0 4 0;
#X connect 6 0 2 0;
#X connect 6 0 10 0;
#X connect 6 0 13 0;
#X connect 7 0 8 0;
#X connect 8 0 1 0;
#X connect 8 0 9 0;
#X connect 10 0 7 0;
#X connect 13 0 5 0;
