#N canvas 0 49 718 849 10;
#X obj 31 -15 inlet A;
#X obj 96 -14 inlet D;
#X obj 159 -15 inlet S;
#X obj 217 -15 inlet R;
#X obj -62 -15 inlet~ sound;
#X obj 175 578 outlet~;
#X obj 283 -15 inlet trigger;
#X obj 140 518 *~;
#X obj 328 10 sel 0;
#X obj 535 153 t b;
#X obj 473 251 pack 0 \$2;
#X obj 117 218 del \$2;
#X obj 474 443 line~;
#X obj 158 275 f \$4;
#X obj 295 395 pack 0 \$3;
#X msg 330 88 stop;
#X obj 218 48 pack 0 \$5;
#X obj 436 43 moses;
#X obj 394 119 t b b;
#X msg 236 269 0;
#X text -12 652 inports SoundIn Attack Decay Sustain Release Trigger
;
#X text -8 682 outports SoundOut;
#X connect 0 0 10 1;
#X connect 0 0 11 1;
#X connect 1 0 14 1;
#X connect 2 0 13 1;
#X connect 3 0 16 1;
#X connect 4 0 7 0;
#X connect 6 0 8 0;
#X connect 7 0 5 0;
#X connect 8 0 15 0;
#X connect 8 0 16 0;
#X connect 8 1 17 0;
#X connect 9 0 11 0;
#X connect 9 0 10 0;
#X connect 10 0 12 0;
#X connect 11 0 13 0;
#X connect 12 0 7 1;
#X connect 13 0 14 0;
#X connect 14 0 12 0;
#X connect 15 0 11 0;
#X connect 16 0 12 0;
#X connect 17 0 18 0;
#X connect 17 1 9 0;
#X connect 18 0 9 0;
#X connect 18 1 19 0;
#X connect 19 0 12 0;
