#N canvas 1440 49 958 1149 10;
#X obj 31 -15 inlet A;
#X obj 96 -14 inlet D;
#X obj 159 -15 inlet S;
#X obj 217 -15 inlet R;
#X obj -62 -15 inlet~ sound;
#X obj 175 578 outlet~;
#X obj 283 -15 inlet trigger;
#X obj 140 518 *~;
#X obj 474 443 line~;
#X text -12 652 inports SoundIn Attack Decay Sustain Release Trigger
;
#X text -8 682 outports SoundOut;
#X obj 88 130 delay;
#X obj 305 183 pack \$1 \$2;
#X msg 371 284 stop;
#X obj 202 266 pack 1 \$1;
#X obj 367 123 print ADSR;
#X obj 317 83 t b b;
#X obj 388 233 t b l;
#X obj 387 360 print;
#X obj 314 259 delay;
#X obj 435 15 select 1;
#X obj 431 42 t b;
#X obj 512 46 t b;
#X msg 467 133 stop;
#X obj 552 254 print;
#X obj 519 100 pack 0 \$1;
#X connect 0 0 14 1;
#X connect 0 0 11 1;
#X connect 1 0 12 1;
#X connect 1 0 19 1;
#X connect 2 0 12 0;
#X connect 3 0 25 1;
#X connect 4 0 7 0;
#X connect 6 0 20 0;
#X connect 7 0 5 0;
#X connect 8 0 7 1;
#X connect 11 0 12 0;
#X connect 12 0 17 0;
#X connect 13 0 8 0;
#X connect 13 0 18 0;
#X connect 14 0 8 0;
#X connect 14 0 18 0;
#X connect 16 0 14 0;
#X connect 16 0 11 0;
#X connect 16 1 15 0;
#X connect 17 0 19 0;
#X connect 17 1 8 0;
#X connect 17 1 18 0;
#X connect 19 0 13 0;
#X connect 20 0 21 0;
#X connect 20 1 22 0;
#X connect 21 0 16 0;
#X connect 22 0 23 0;
#X connect 22 0 25 0;
#X connect 23 0 11 0;
#X connect 23 0 19 0;
#X connect 25 0 8 0;
#X connect 25 0 24 0;
