#N canvas 1440 49 958 1149 10;
#X obj 21 109 osc~ 440;
#X obj 248 37 loadbang;
#X obj 304 268 dac~;
#X msg 558 107 1;
#X msg 556 147 0;
#X msg 152 -7 bang;
#X msg 370 110 float 0.5;
#X obj 305 224 adsr;
#X msg 458 109 float 4000;
#X msg 168 109 float 20;
#X msg 272 109 float 30;
#X text 613 107 send 1 or zero to trigger and stop;
#X connect 0 0 7 0;
#X connect 1 0 9 0;
#X connect 1 0 10 0;
#X connect 1 0 6 0;
#X connect 1 0 8 0;
#X connect 3 0 7 5;
#X connect 4 0 7 5;
#X connect 5 0 1 0;
#X connect 6 0 7 3;
#X connect 7 0 2 0;
#X connect 8 0 7 4;
#X connect 9 0 7 1;
#X connect 10 0 7 2;
