#N canvas 1440 49 958 1085 10;
#X obj 21 109 osc~ 440;
#X obj 248 37 loadbang;
#X obj 304 268 dac~;
#X msg 152 -7 bang;
#X msg 370 110 float 0.5;
#X msg 458 109 float 4000;
#X obj 289 221 adsr_patch;
#X msg 168 109 float 2000;
#X msg 272 109 float 3000;
#X msg 552 110 1;
#X msg 556 147 0;
#X connect 0 0 6 0;
#X connect 1 0 7 0;
#X connect 1 0 8 0;
#X connect 1 0 4 0;
#X connect 1 0 5 0;
#X connect 3 0 1 0;
#X connect 4 0 6 3;
#X connect 5 0 6 4;
#X connect 6 0 2 0;
#X connect 7 0 6 1;
#X connect 8 0 6 2;
#X connect 9 0 6 5;
#X connect 10 0 6 5;
