#N canvas 2 79 450 300 10;
#X obj 62 19 inlet;
#X obj 67 134 outlet;
#X obj 120 18 inlet;
#X obj 75 102 -;
#X text 0 0 inports Minuend Subtrahend;
#X text 0 0 outports Difference;
#X obj 137 69 trigger bang;
#X connect 0 0 3 0;
#X connect 0 0 6 0;
#X connect 2 0 3 1;
#X connect 2 0 6 0;
#X connect 3 0 1 0;
#X connect 6 0 3 0;
