#N canvas 1440 49 958 1149 10;
#X obj 78 79 mulss_patch;
#X obj 59 26 osc~ 440;
#X obj 145 26 osc~ 220;
#X obj 88 136 dac~;
#X connect 0 0 3 0;
#X connect 0 0 3 1;
#X connect 1 0 0 0;
#X connect 2 0 0 1;
