#N canvas 1440 49 958 1149 10;
#X declare -path ./wave;
#X text 261 56 click here to open wav file;
#X obj 225 220 readsf~ 1;
#X obj 224 266 outlet~;
#X text 166 310 outports Output;
#X obj 419 46 inlet trigger;
#X obj 400 106 sel 1;
#X msg 225 182 open FileName.wav;
#X msg 367 186 start;
#X msg 428 188 print;
#X msg 56 226 replace 2 FileName;
#X text 167 344 inports Trigger;
#X obj 103 93 declare -path ./wave;
#X connect 1 0 2 0;
#X connect 4 0 5 0;
#X connect 5 0 6 0;
#X connect 5 0 7 0;
#X connect 6 0 1 0;
#X connect 6 0 9 0;
#X connect 7 0 1 0;
#X connect 8 0 1 0;
