#N canvas 0 49 718 849 10;
#X text 261 56 click here to open wav file;
#X obj 214 381 readsf~ 1;
#X obj 213 427 outlet~;
#X text 155 471 outports Output;
#X obj 44 67 inlet trigger;
#X obj 47 115 sel 1;
#X msg 266 286 start;
#X msg 334 344 print;
#X msg 292 235 replace 2 FileName;
#X text 156 505 inports Trigger;
#X msg 214 343 open \$1/\$2;
#X obj 145 338 print;
#X obj 155 267 pack s s;
#X msg 290 190 symbol FileName.wav;
#X msg 129 202 symbol ../wave;
#X obj 241 153 t b b b;
#X connect 1 0 2 0;
#X connect 4 0 5 0;
#X connect 5 0 11 0;
#X connect 5 0 15 0;
#X connect 6 0 1 0;
#X connect 7 0 1 0;
#X connect 10 0 1 0;
#X connect 10 0 11 0;
#X connect 12 0 10 0;
#X connect 12 0 11 0;
#X connect 13 0 8 0;
#X connect 13 0 12 1;
#X connect 14 0 12 0;
#X connect 15 0 6 0;
#X connect 15 1 14 0;
#X connect 15 2 13 0;
