#N canvas 591 111 450 300 10;
#X text 109 9 replace 4 FileName;
#X msg 87 91 open FileName;
#X text 131 48 click here to open wav file;
#X text 204 98 click here once file is open;
#X msg -3 129 start;
#X obj 87 129 readsf~ 1;
#X obj 86 175 outlet~;
#X obj 18 26 loadbang;
#X text 28 219 outports Output;
#X obj -20 82 delay;
#X connect 1 0 5 0;
#X connect 4 0 5 0;
#X connect 5 0 6 0;
#X connect 5 1 1 0;
#X connect 5 1 9 0;
#X connect 7 0 1 0;
#X connect 7 0 9 0;
#X connect 9 0 4 0;
