#N canvas 1440 49 958 1149 10;
#X obj 182 301 outlet~;
#X obj 82 53 inlet~ sound;
#X obj 405 54 inlet trigger;
#X obj 166 53 inlet rising_time;
#X obj 285 53 inlet falling_time;
#X obj 202 240 *~;
#X obj 388 79 sel 1;
#X obj 393 159 delay;
#X msg 296 232 1 \$1;
#X msg 396 226 0 \$1;
#X obj 317 279 line~;
#X obj 425 266 print;
#X floatatom 289 152 5 0 0 0 - - -;
#X floatatom 336 185 5 0 0 0 - - -;
#X connect 1 0 5 0;
#X connect 2 0 6 0;
#X connect 3 0 7 1;
#X connect 3 0 12 0;
#X connect 4 0 13 0;
#X connect 5 0 0 0;
#X connect 6 0 7 0;
#X connect 6 0 12 0;
#X connect 7 0 13 0;
#X connect 8 0 10 0;
#X connect 8 0 11 0;
#X connect 9 0 10 0;
#X connect 9 0 11 0;
#X connect 10 0 5 1;
#X connect 12 0 8 0;
#X connect 13 0 9 0;
