#N canvas 0 49 718 745 10;
#X floatatom 147 259 3 0 0 0 - - -;
#X obj 21 177 notein;
#X obj 30 216 stripnote;
#X obj 304 546 sendOSC;
#X obj 173 305 mtof;
#X obj 220 291 / 128;
#X msg 415 464 disconnect;
#X obj 57 296 select 0;
#X msg 74 344 send /amp 0;
#X obj 263 446 print;
#X obj 236 350 * 500;
#X msg 439 429 connect localhost 50050;
#X msg 176 389 send /freq \$1;
#X obj 131 179 print;
#X obj 126 157 pack f f f;
#X msg 322 381 send /amp \$1;
#X obj 215 237 sel 0;
#X msg 379 296 send /trigger 0;
#X msg 298 246 send /trigger 1;
#X connect 0 0 5 0;
#X connect 1 0 2 0;
#X connect 1 0 14 0;
#X connect 1 1 2 1;
#X connect 1 1 7 0;
#X connect 1 1 14 1;
#X connect 1 1 16 0;
#X connect 1 2 14 2;
#X connect 2 0 4 0;
#X connect 2 1 0 0;
#X connect 4 0 12 0;
#X connect 5 0 10 0;
#X connect 6 0 3 0;
#X connect 7 0 8 0;
#X connect 8 0 3 0;
#X connect 10 0 15 0;
#X connect 11 0 3 0;
#X connect 12 0 3 0;
#X connect 12 0 9 0;
#X connect 14 0 13 0;
#X connect 15 0 3 0;
#X connect 15 0 9 0;
#X connect 16 0 17 0;
#X connect 16 1 18 0;
#X connect 17 0 9 0;
#X connect 17 0 3 0;
#X connect 18 0 3 0;
