#N canvas 2011 224 718 745 10;
#X obj 190 27 notein;
#X obj 292 701 sendOSC;
#X msg 428 609 disconnect;
#X msg 427 584 connect localhost 50050;
#X msg 198 401 send /amp \$1;
#X msg 404 401 send /trigger 0;
#X msg 286 401 send /trigger 1;
#X msg 111 405 send /sin \$1;
#X obj 291 83 t b f;
#X obj 171 126 stripnote;
#X obj 165 179 mtof;
#X obj 290 254 select;
#X obj 278 134 float;
#X obj 276 166 sel 0;
#X obj 280 213 float;
#X obj 230 218 / 127;
#X floatatom 158 268 5 0 0 0 - - -;
#X floatatom 228 287 5 0 0 0 - - -;
#X obj 290 282 bng 15 250 50 0 empty empty empty 17 7 0 10 -262144
-1 -1;
#X obj 324 284 bng 15 250 50 0 empty empty empty 17 7 0 10 -262144
-1 -1;
#X obj 285 349 bng 15 250 50 0 empty empty empty 17 7 0 10 -262144
-1 -1;
#X obj 254 319 t b f;
#X obj 445 465 loadbang;
#X floatatom 381 256 5 0 0 0 - - -;
#X floatatom 364 164 5 0 0 0 - - -;
#X connect 0 0 9 0;
#X connect 0 0 8 0;
#X connect 0 1 9 1;
#X connect 0 1 12 1;
#X connect 2 0 1 0;
#X connect 3 0 1 0;
#X connect 4 0 1 0;
#X connect 5 0 1 0;
#X connect 6 0 1 0;
#X connect 7 0 1 0;
#X connect 8 0 12 0;
#X connect 8 1 14 1;
#X connect 9 0 10 0;
#X connect 9 0 11 1;
#X connect 10 0 16 0;
#X connect 11 0 18 0;
#X connect 11 0 5 0;
#X connect 11 1 19 0;
#X connect 12 0 13 0;
#X connect 12 0 24 0;
#X connect 13 0 14 0;
#X connect 13 1 15 0;
#X connect 14 0 11 0;
#X connect 14 0 23 0;
#X connect 15 0 17 0;
#X connect 16 0 7 0;
#X connect 17 0 21 0;
#X connect 21 0 6 0;
#X connect 21 0 20 0;
#X connect 21 1 4 0;
#X connect 22 0 3 0;
