#N canvas 0 49 718 745 10;
#X floatatom 147 259 3 0 0 0 - - -;
#X obj 21 177 notein;
#X obj 30 216 stripnote;
#X obj 466 298 dumpOSC 50050;
#X obj 464 370 print osc;
#X obj 304 546 sendOSC;
#X obj 173 305 mtof;
#X obj 258 282 / 128;
#X msg 415 464 disconnect;
#X obj 170 647 osc~;
#X obj 185 714 *~;
#X obj 142 821 dac~;
#X obj 149 782 *~;
#X obj 72 592 select 0;
#X msg 117 649 float 1;
#X msg 50 645 float 0;
#X obj 104 216 s velocity;
#X obj 64 538 r velocity;
#X obj 138 384 s freq;
#X obj 163 530 r freq;
#X obj 335 299 s amp;
#X obj 259 610 r amp;
#X obj 189 598 print;
#X obj 57 296 select 0;
#X msg 74 344 send /amp 0;
#X msg 439 429 connect 192.168.1.99 50500;
#X msg 205 389 send /sin1 \$1;
#X msg 322 381 send /sin2 \$1;
#X obj 263 446 print;
#X obj 325 344 * 500;
#X connect 0 0 7 0;
#X connect 1 0 2 0;
#X connect 1 1 2 1;
#X connect 1 1 16 0;
#X connect 1 1 23 0;
#X connect 2 0 6 0;
#X connect 2 1 0 0;
#X connect 3 0 4 0;
#X connect 6 0 26 0;
#X connect 6 0 18 0;
#X connect 7 0 20 0;
#X connect 7 0 29 0;
#X connect 8 0 5 0;
#X connect 9 0 10 0;
#X connect 10 0 12 0;
#X connect 12 0 11 0;
#X connect 13 0 15 0;
#X connect 13 1 14 0;
#X connect 14 0 12 1;
#X connect 15 0 12 1;
#X connect 17 0 13 0;
#X connect 17 0 22 0;
#X connect 19 0 9 0;
#X connect 19 0 22 0;
#X connect 21 0 10 1;
#X connect 21 0 22 0;
#X connect 23 0 24 0;
#X connect 24 0 5 0;
#X connect 25 0 5 0;
#X connect 26 0 5 0;
#X connect 26 0 28 0;
#X connect 27 0 5 0;
#X connect 27 0 28 0;
#X connect 29 0 27 0;
