#N canvas 2 50 1276 1388 10;
#X obj 186 37 loadbang;
#X text 0 0 outports Value;
#X obj 297 92 inlet Speed;
#X obj 76 98 inlet Value;
#X obj 275 492 float;
#X obj 215 490 +;
#X obj 268 223 metro;
#X msg 224 130 bang;
#X obj 276 721 outlet;
#X obj 388 273 bng 15 250 50 0 empty empty empty 17 7 0 10 -262144
-1 -1;
#X msg 345 344 1;
#X obj 353 488 expr if ($f2 > 0 \, $f2 - $f3 \, 0);
#X msg 239 420 10;
#X obj 237 89 bng 15 250 50 0 empty empty empty 17 7 0 10 -262144 -1
-1;
#X obj 423 96 inlet reset;
#X text 115 5 inports Value Speed Reset;
#X msg 409 192 0;
#X obj 456 150 t b;
#X msg 316 155 1000;
#X connect 0 0 7 0;
#X connect 2 0 6 1;
#X connect 3 0 5 0;
#X connect 4 0 5 1;
#X connect 4 0 11 1;
#X connect 4 0 8 0;
#X connect 5 0 4 0;
#X connect 6 0 9 0;
#X connect 6 0 10 0;
#X connect 6 0 11 0;
#X connect 7 0 6 0;
#X connect 7 0 18 0;
#X connect 10 0 11 2;
#X connect 11 0 4 0;
#X connect 12 0 4 0;
#X connect 13 0 7 0;
#X connect 14 0 17 0;
#X connect 16 0 4 0;
#X connect 17 0 16 0;
#X connect 18 0 6 1;
