#N canvas 0 49 718 849 10;
#X obj -16 33 loadbang;
#X text 0 0 outports Value;
#X text 115 5 inports Value Speed;
#X obj 297 92 inlet Speed;
#X obj 76 98 inlet Value;
#X obj 275 492 float;
#X obj 215 490 +;
#X obj 268 223 metro;
#X msg 224 130 bang;
#X obj 276 721 outlet;
#X obj 388 273 bng 15 250 50 0 empty empty empty 17 7 0 10 -262144
-1 -1;
#X msg 345 344 1;
#X obj 376 488 expr if ($f2 > 0 \, $f2 - $f3 \, 0);
#X msg 239 420 10;
#X connect 3 0 7 1;
#X connect 4 0 6 0;
#X connect 5 0 6 1;
#X connect 5 0 12 1;
#X connect 5 0 9 0;
#X connect 6 0 5 0;
#X connect 7 0 10 0;
#X connect 7 0 11 0;
#X connect 7 0 12 0;
#X connect 8 0 7 0;
#X connect 11 0 12 2;
#X connect 12 0 5 0;
#X connect 13 0 5 0;
