#N canvas 1440 49 958 1149 10;
#X obj 124 337 outlet;
#X obj -16 33 loadbang;
#X text 0 0 outports Value;
#X text 115 5 inports Value Speed;
#X obj 137 218 float;
#X obj 226 94 inlet Speed;
#X obj 76 98 inlet Value;
#X obj 92 172 +;
#X msg 186 147 bang;
#X obj 301 236 - 1;
#X floatatom 173 242 5 0 0 0 - - -;
#X floatatom 303 283 5 0 0 0 - - -;
#X msg 140 159 2;
#X obj 166 186 r test;
#X obj 339 260 s test;
#X obj 226 308 delay 0;
#X obj 206 277 t b;
#X connect 4 0 0 0;
#X connect 4 0 7 1;
#X connect 4 0 10 0;
#X connect 4 0 16 0;
#X connect 5 0 9 1;
#X connect 6 0 7 0;
#X connect 7 0 4 0;
#X connect 8 0 9 0;
#X connect 9 0 11 0;
#X connect 9 0 14 0;
#X connect 10 0 9 0;
#X connect 12 0 4 0;
#X connect 13 0 4 0;
#X connect 16 0 15 0;
