#N canvas 2239 483 958 558 10;
#X floatatom 93 23 5 0 0 0 - - -;
#X obj 72 66 square~;
#X obj 79 173 dac~;
#X floatatom 142 63 5 0 0 0 - - -;
#X obj 71 105 lowpass_patch;
#X connect 0 0 1 0;
#X connect 1 0 4 0;
#X connect 3 0 4 1;
#X connect 4 0 2 0;
#X connect 4 0 2 1;
